<svg id="svg" version="1.1" xmlns="http://www.w3.org/2000/svg" xmlns:xlink="http://www.w3.org/1999/xlink" width="400" height="195.59471365638765" viewBox="0, 0, 400,195.59471365638765"><g id="svgg"><path id="path0" d="M1.995 1.995 C 1.626 2.364,1.656 193.313,2.025 193.619 C 2.221 193.781,54.043 193.826,200.216 193.790 L 398.142 193.741 398.142 97.800 L 398.142 1.858 200.186 1.809 C 46.381 1.771,2.178 1.813,1.995 1.995 M396.244 3.756 C 396.613 4.124,396.584 191.552,396.215 191.859 C 396.019 192.021,344.656 192.066,199.784 192.029 L 3.619 191.980 3.569 98.015 C 3.533 28.710,3.578 3.981,3.740 3.786 C 4.047 3.416,395.875 3.386,396.244 3.756 M7.276 7.276 C 7.027 7.525,6.912 187.601,7.160 188.248 C 7.291 188.587,392.180 188.735,392.714 188.396 C 392.910 188.272,392.949 170.002,392.910 97.690 L 392.861 7.139 200.186 7.090 C 50.489 7.052,7.459 7.094,7.276 7.276 M390.963 9.037 C 391.332 9.406,391.302 186.271,390.933 186.578 C 390.738 186.740,340.751 186.784,199.784 186.748 L 8.900 186.699 8.851 98.015 C 8.814 32.615,8.859 9.262,9.021 9.067 C 9.328 8.697,390.594 8.667,390.963 9.037 M201.637 50.807 C 201.147 51.345,200.735 51.925,200.000 53.112 C 197.948 56.427,197.770 56.572,196.680 55.817 C 196.468 55.670,196.159 55.550,195.993 55.550 C 195.827 55.550,195.363 55.374,194.961 55.159 C 193.384 54.314,191.847 54.804,191.154 56.374 C 191.025 56.665,190.779 57.061,190.608 57.254 C 190.282 57.619,188.382 60.079,186.699 62.315 C 186.161 63.029,185.435 63.965,185.086 64.393 C 184.736 64.821,184.450 65.248,184.450 65.341 C 184.450 65.434,184.224 65.719,183.948 65.975 C 183.672 66.231,183.298 66.664,183.117 66.938 C 180.743 70.520,180.760 70.506,178.931 70.345 C 176.642 70.144,176.981 69.904,173.113 74.465 C 172.311 75.412,171.277 76.574,170.815 77.049 C 169.610 78.289,169.769 79.222,171.120 78.835 C 171.464 78.736,174.185 78.558,177.168 78.438 C 185.956 78.087,185.615 78.216,185.926 75.110 C 185.996 74.411,186.211 73.474,186.405 73.028 C 186.599 72.582,186.820 71.922,186.896 71.561 C 186.973 71.200,187.248 70.621,187.508 70.275 L 187.981 69.645 190.334 69.590 L 192.687 69.535 193.244 68.460 C 193.550 67.868,194.217 66.504,194.725 65.428 C 197.074 60.453,197.657 59.415,198.748 58.276 C 199.350 57.647,200.142 56.546,200.508 55.830 C 201.874 53.157,203.103 52.944,206.776 54.743 C 207.903 55.294,208.916 55.746,209.028 55.746 C 209.139 55.746,209.390 55.922,209.584 56.137 C 209.779 56.352,210.089 56.528,210.273 56.528 C 210.457 56.528,210.817 56.689,211.074 56.886 C 211.330 57.083,211.672 57.304,211.834 57.378 C 211.995 57.452,212.523 57.774,213.007 58.093 C 213.491 58.412,214.108 58.782,214.377 58.914 C 214.810 59.128,216.199 59.985,218.289 61.330 C 218.665 61.572,219.171 61.829,219.413 61.901 C 220.190 62.131,220.180 62.880,219.388 63.846 C 219.001 64.319,218.595 64.912,218.486 65.165 C 218.376 65.417,217.980 66.020,217.604 66.504 C 217.228 66.988,216.835 67.582,216.730 67.823 C 216.624 68.065,216.184 68.711,215.751 69.259 C 215.318 69.807,214.963 70.327,214.963 70.415 C 214.963 70.503,214.567 71.062,214.083 71.656 C 213.599 72.250,213.203 72.797,213.203 72.870 C 213.203 72.944,212.873 73.450,212.469 73.995 C 212.066 74.541,211.560 75.273,211.345 75.622 C 211.130 75.972,210.675 76.653,210.335 77.135 C 209.995 77.618,209.767 78.064,209.830 78.126 C 210.052 78.349,210.661 78.233,211.291 77.849 C 211.643 77.634,212.086 77.458,212.275 77.458 C 212.463 77.458,212.946 77.281,213.347 77.066 C 213.749 76.851,214.192 76.675,214.333 76.675 C 214.473 76.675,214.914 76.511,215.313 76.310 C 215.713 76.109,216.388 75.882,216.815 75.804 C 217.241 75.727,217.854 75.527,218.176 75.360 C 218.499 75.194,219.205 75.003,219.745 74.937 C 220.956 74.789,221.141 74.479,221.335 72.273 C 221.522 70.150,221.831 69.728,223.318 69.569 C 223.941 69.503,224.954 69.270,225.570 69.052 C 226.186 68.834,226.901 68.655,227.159 68.655 C 227.814 68.655,228.017 68.335,228.239 66.954 C 228.345 66.295,228.561 65.374,228.717 64.907 C 228.874 64.441,229.067 63.407,229.145 62.611 C 229.224 61.815,229.452 60.802,229.652 60.362 C 229.852 59.921,230.018 59.365,230.020 59.127 C 230.034 57.710,231.647 57.062,232.411 58.166 C 232.645 58.502,233.367 59.262,234.017 59.853 C 234.667 60.445,236.008 61.699,236.995 62.641 C 237.983 63.582,238.865 64.354,238.955 64.356 C 239.046 64.358,239.574 64.790,240.130 65.315 C 240.685 65.841,241.324 66.329,241.548 66.401 C 241.772 66.472,241.956 66.598,241.956 66.681 C 241.956 66.764,242.660 67.377,243.521 68.045 C 244.381 68.712,245.086 69.342,245.086 69.445 C 245.086 69.549,245.215 69.633,245.372 69.633 C 245.530 69.633,246.097 70.022,246.631 70.496 C 247.165 70.971,247.784 71.417,248.007 71.487 C 248.229 71.558,248.411 71.695,248.411 71.793 C 248.411 71.891,248.668 72.103,248.982 72.266 C 249.297 72.429,249.953 72.893,250.441 73.298 C 250.929 73.703,251.574 74.226,251.874 74.460 C 253.409 75.655,254.866 76.922,254.866 77.062 C 254.866 77.275,255.812 77.500,256.061 77.346 C 256.184 77.270,256.132 77.081,255.923 76.850 C 255.737 76.644,255.489 76.314,255.372 76.115 C 254.897 75.308,254.065 74.123,253.541 73.511 C 253.236 73.153,252.664 72.377,252.269 71.785 C 251.874 71.193,251.194 70.225,250.758 69.633 C 250.321 69.042,249.813 68.305,249.628 67.996 C 249.443 67.687,248.936 66.983,248.502 66.431 C 247.701 65.411,247.107 64.577,246.741 63.956 C 246.629 63.766,246.412 63.461,246.259 63.276 C 246.106 63.092,245.888 62.753,245.773 62.522 C 245.487 61.943,244.385 61.830,244.216 62.362 C 244.150 62.571,243.856 63.011,243.564 63.340 C 243.271 63.669,242.827 64.207,242.577 64.536 C 242.327 64.865,242.035 65.134,241.928 65.134 C 241.600 65.134,239.804 62.813,239.804 62.387 C 239.804 62.285,239.633 62.029,239.424 61.820 C 239.214 61.610,238.684 60.928,238.245 60.304 C 237.351 59.033,234.997 55.590,234.479 54.796 C 232.864 52.319,232.639 52.210,231.179 53.199 C 230.705 53.520,230.248 53.784,230.163 53.786 C 230.078 53.788,229.549 54.128,228.989 54.542 C 228.429 54.956,227.707 55.442,227.384 55.624 C 227.061 55.805,226.568 56.105,226.288 56.290 C 226.009 56.475,225.524 56.793,225.213 56.996 C 224.901 57.200,224.407 57.530,224.115 57.730 C 223.824 57.929,223.522 58.093,223.444 58.093 C 223.365 58.093,223.106 58.276,222.868 58.500 C 222.630 58.724,222.079 58.955,221.644 59.013 C 220.802 59.126,220.625 59.031,218.814 57.498 C 218.363 57.117,217.775 56.653,217.506 56.467 C 215.422 55.026,214.234 54.222,213.694 53.888 C 213.346 53.672,212.698 53.166,212.252 52.763 C 211.806 52.359,211.339 52.029,211.213 52.029 C 211.087 52.029,210.824 51.884,210.627 51.706 C 210.220 51.338,209.308 51.640,208.074 52.551 C 207.304 53.119,206.840 53.124,205.966 52.577 C 204.927 51.927,204.171 51.494,203.505 51.171 C 203.174 51.010,202.789 50.741,202.650 50.574 C 202.307 50.160,202.204 50.184,201.637 50.807 M313.056 75.110 C 310.897 75.516,309.117 75.965,308.760 76.194 C 308.541 76.335,308.010 76.513,307.579 76.590 C 307.149 76.667,306.128 77.113,305.311 77.582 C 304.493 78.051,303.772 78.435,303.707 78.435 C 303.599 78.435,302.566 79.129,301.230 80.098 C 300.933 80.313,300.439 80.665,300.132 80.880 C 298.306 82.158,293.613 87.780,293.287 89.081 C 293.220 89.349,293.041 89.671,292.890 89.796 C 292.740 89.921,292.616 90.117,292.616 90.231 C 292.616 90.345,292.446 90.797,292.237 91.234 C 291.348 93.099,290.673 97.195,290.681 100.680 C 290.687 103.595,290.359 103.867,286.775 103.922 C 283.647 103.970,283.634 103.976,283.499 105.449 C 283.311 107.498,283.588 108.239,284.602 108.398 C 287.014 108.775,289.221 110.303,290.101 112.205 L 290.660 113.413 290.660 127.208 C 290.660 135.428,290.587 141.049,290.480 141.115 C 290.380 141.177,290.239 141.503,290.165 141.839 C 289.879 143.139,286.987 145.330,285.557 145.330 C 284.286 145.330,283.541 146.489,284.146 147.524 C 284.830 148.695,284.358 148.658,297.941 148.606 L 310.405 148.557 310.850 148.112 C 311.964 146.998,311.286 145.330,309.719 145.330 C 309.270 145.330,308.351 145.154,307.677 144.939 C 307.004 144.724,306.301 144.548,306.115 144.548 C 304.968 144.548,302.842 142.955,301.955 141.432 L 301.320 140.342 301.264 126.944 C 301.201 112.185,301.189 112.351,302.394 111.493 C 303.473 110.725,305.824 110.453,308.525 110.784 C 314.411 111.505,314.708 111.467,315.732 109.872 C 316.347 108.914,316.368 108.813,316.374 106.772 C 316.385 103.727,316.968 103.974,309.578 103.899 L 303.472 103.837 302.564 103.256 C 301.198 102.383,301.193 102.357,301.261 95.630 L 301.320 89.682 301.896 88.606 C 304.338 84.038,309.561 83.109,315.530 86.182 C 317.627 87.262,319.168 85.686,319.950 81.663 C 320.096 80.910,320.265 80.057,320.324 79.769 C 320.604 78.404,319.046 76.146,317.128 75.139 C 316.661 74.894,314.299 74.877,313.056 75.110 M112.142 78.576 C 111.800 78.618,111.415 78.780,111.286 78.936 C 111.158 79.091,110.936 79.218,110.793 79.218 C 110.650 79.218,110.296 79.438,110.006 79.707 C 109.716 79.976,109.415 80.196,109.338 80.196 C 109.260 80.196,108.719 80.658,108.136 81.222 C 104.723 84.526,104.739 87.229,108.192 90.514 C 111.763 93.911,114.173 93.731,117.891 89.787 C 118.453 89.191,118.915 88.611,118.918 88.498 C 118.922 88.384,119.152 87.988,119.431 87.617 C 120.266 86.506,119.550 82.738,118.503 82.738 C 118.418 82.738,118.218 82.488,118.060 82.182 C 117.544 81.185,113.660 78.355,112.960 78.467 C 112.852 78.484,112.483 78.533,112.142 78.576 M208.845 79.924 C 208.784 79.985,207.835 80.075,206.736 80.125 C 205.568 80.177,204.514 80.329,204.202 80.491 C 203.908 80.643,203.069 80.863,202.337 80.980 C 201.606 81.096,200.780 81.313,200.504 81.462 C 200.227 81.610,199.428 82.011,198.729 82.352 C 198.029 82.694,197.147 83.162,196.767 83.394 C 196.388 83.625,195.785 83.990,195.428 84.205 C 193.789 85.194,190.924 87.864,190.012 89.255 C 189.717 89.705,189.312 90.293,189.113 90.562 C 188.619 91.228,187.775 93.076,187.775 93.492 C 187.775 93.677,187.555 94.243,187.286 94.749 C 186.949 95.384,186.796 95.984,186.792 96.685 C 186.790 97.244,186.703 98.068,186.600 98.516 C 186.333 99.670,186.684 103.049,187.184 104.147 C 187.401 104.624,187.579 105.116,187.579 105.239 C 187.579 106.368,191.908 111.421,194.015 112.750 C 194.405 112.997,194.844 113.343,194.990 113.519 C 195.136 113.695,195.361 113.839,195.489 113.839 C 195.617 113.839,195.977 114.105,196.288 114.430 C 196.600 114.756,197.481 115.365,198.245 115.785 C 199.009 116.204,199.749 116.686,199.890 116.856 C 200.031 117.025,200.246 117.164,200.369 117.164 C 200.491 117.164,201.215 117.582,201.976 118.093 C 202.738 118.604,203.732 119.242,204.184 119.511 C 204.637 119.780,205.377 120.273,205.829 120.607 C 206.281 120.941,207.012 121.398,207.454 121.624 C 207.896 121.849,208.983 122.519,209.870 123.112 C 210.756 123.706,211.649 124.244,211.853 124.309 C 212.058 124.374,212.225 124.508,212.225 124.606 C 212.225 124.704,212.555 124.965,212.958 125.185 C 214.664 126.117,215.605 126.827,217.105 128.313 C 218.674 129.869,219.249 130.608,219.385 131.247 C 219.442 131.516,219.622 132.110,219.785 132.567 C 220.830 135.501,218.685 140.413,215.800 141.698 C 215.393 141.878,214.827 142.154,214.540 142.310 C 212.407 143.472,204.990 144.027,203.325 143.149 C 203.002 142.979,202.386 142.778,201.956 142.703 C 201.103 142.554,198.777 141.688,198.388 141.373 C 198.254 141.266,197.513 140.871,196.741 140.496 C 195.968 140.121,194.650 139.273,193.811 138.612 C 190.169 135.739,189.852 135.550,188.660 135.550 C 187.884 135.550,187.103 136.347,186.892 137.355 C 186.818 137.707,186.412 139.020,185.990 140.273 L 185.222 142.550 185.634 143.652 C 186.284 145.387,189.022 147.242,192.338 148.193 C 192.895 148.353,194.098 148.699,195.012 148.962 C 199.391 150.223,209.120 150.320,211.411 149.125 C 211.697 148.975,212.119 148.853,212.347 148.852 C 212.576 148.851,213.456 148.524,214.303 148.124 C 215.150 147.725,216.152 147.307,216.528 147.195 C 220.025 146.160,226.713 139.346,227.381 136.137 C 227.460 135.760,227.690 135.178,227.894 134.842 C 228.098 134.507,228.265 133.891,228.267 133.473 C 228.269 133.056,228.398 132.186,228.554 131.540 C 228.922 130.013,228.924 127.586,228.557 126.944 C 228.404 126.675,228.274 126.103,228.268 125.672 C 228.263 125.242,228.133 124.670,227.980 124.401 C 227.826 124.132,227.576 123.648,227.422 123.325 C 226.669 121.736,223.567 117.946,223.020 117.946 C 222.942 117.946,222.447 117.528,221.919 117.017 C 221.392 116.506,220.638 115.868,220.244 115.599 C 219.850 115.330,218.886 114.670,218.102 114.132 C 215.700 112.484,213.951 111.358,212.518 110.539 C 211.765 110.108,210.709 109.441,210.172 109.058 C 209.634 108.675,209.122 108.362,209.033 108.362 C 208.945 108.362,208.005 107.790,206.945 107.092 C 205.886 106.393,204.814 105.735,204.563 105.631 C 204.313 105.526,203.756 105.180,203.325 104.861 C 202.895 104.543,202.059 104.002,201.467 103.659 C 200.875 103.317,200.168 102.804,199.894 102.521 C 199.621 102.237,198.961 101.600,198.427 101.105 C 193.383 96.427,194.928 89.053,201.393 86.942 C 203.204 86.351,208.012 86.228,209.529 86.735 C 209.990 86.888,210.719 87.077,211.149 87.154 C 212.115 87.327,215.081 88.835,216.528 89.889 C 217.120 90.320,217.824 90.813,218.093 90.984 C 218.362 91.156,218.897 91.595,219.282 91.960 C 219.667 92.325,220.344 92.788,220.787 92.987 L 221.592 93.350 222.493 92.823 C 223.048 92.497,223.495 92.056,223.658 91.673 C 224.195 90.407,225.535 85.948,225.530 85.441 C 225.522 84.461,222.679 82.205,221.027 81.866 C 220.650 81.789,219.990 81.565,219.560 81.369 C 219.130 81.172,218.381 80.950,217.897 80.874 C 217.413 80.799,216.858 80.653,216.663 80.551 C 215.987 80.196,209.124 79.646,208.845 79.924 M48.252 81.722 C 47.306 82.710,47.709 84.342,48.963 84.603 C 49.305 84.675,49.768 84.849,49.993 84.991 C 50.218 85.133,50.766 85.347,51.210 85.467 C 52.725 85.875,55.216 88.415,55.484 89.824 C 55.551 90.176,55.747 90.729,55.920 91.051 C 56.204 91.581,56.235 93.853,56.235 114.230 L 56.235 136.822 55.773 138.680 C 55.518 139.702,55.155 140.714,54.966 140.929 C 54.776 141.144,54.519 141.518,54.394 141.761 C 54.269 142.003,53.736 142.419,53.210 142.686 C 52.683 142.953,52.203 143.251,52.143 143.348 C 52.083 143.446,51.733 143.582,51.367 143.650 C 51.000 143.719,50.597 143.900,50.471 144.051 C 50.345 144.203,49.962 144.384,49.620 144.455 C 46.324 145.132,45.513 145.799,45.962 147.466 C 46.344 148.885,46.535 148.927,50.992 148.580 C 58.809 147.971,66.050 147.991,76.284 148.651 C 79.582 148.863,79.999 148.728,80.219 147.379 C 80.499 145.660,79.776 145.073,76.835 144.631 C 75.902 144.491,74.886 144.246,74.579 144.088 C 74.272 143.929,73.672 143.733,73.247 143.654 C 71.374 143.302,69.249 141.595,68.335 139.707 L 67.791 138.582 67.783 128.952 L 67.775 119.323 68.509 118.588 L 69.243 117.854 72.226 117.901 C 79.190 118.010,81.188 118.704,85.424 122.489 C 86.994 123.892,87.639 123.304,89.651 118.631 C 90.022 117.770,90.819 116.036,91.422 114.778 C 92.025 113.520,92.518 112.386,92.518 112.258 C 92.518 112.131,92.711 111.716,92.945 111.336 C 94.260 109.208,93.098 107.340,91.322 108.726 C 91.066 108.926,90.328 109.381,89.682 109.737 C 89.037 110.092,88.377 110.491,88.215 110.622 C 88.054 110.754,87.614 110.926,87.237 111.005 C 86.861 111.083,86.226 111.313,85.827 111.515 C 85.428 111.717,84.847 111.883,84.536 111.883 C 84.226 111.883,83.144 112.062,82.132 112.282 C 80.628 112.608,79.278 112.702,74.715 112.799 L 69.137 112.918 68.518 112.213 C 67.653 111.228,67.640 111.043,67.712 100.440 L 67.775 91.051 68.243 90.137 C 69.205 88.254,70.301 87.452,72.492 87.027 C 74.887 86.562,79.718 86.519,82.054 86.941 C 82.914 87.096,83.998 87.227,84.463 87.230 C 85.331 87.237,86.460 87.626,88.509 88.622 C 89.154 88.936,89.789 89.193,89.920 89.193 C 90.050 89.193,90.259 89.391,90.383 89.633 C 90.508 89.875,90.854 90.337,91.153 90.660 C 91.823 91.383,92.517 92.672,92.521 93.200 C 92.527 93.924,93.779 95.064,94.561 95.058 C 95.380 95.051,96.627 93.044,96.625 91.736 C 96.624 91.467,96.838 90.543,97.099 89.682 C 97.862 87.170,98.215 85.678,98.435 84.049 L 98.640 82.523 97.975 81.829 L 97.311 81.134 92.421 81.249 C 89.731 81.312,85.462 81.448,82.934 81.550 C 75.270 81.860,56.713 81.807,53.496 81.465 C 49.432 81.033,48.886 81.060,48.252 81.722 M335.234 93.571 C 334.776 93.734,333.708 94.649,332.202 96.168 C 329.835 98.556,326.616 101.319,326.197 101.322 C 326.070 101.323,325.439 101.720,324.796 102.203 C 324.153 102.686,323.525 103.081,323.402 103.081 C 323.278 103.081,323.068 103.212,322.935 103.373 C 322.802 103.533,322.329 103.756,321.884 103.868 C 321.440 103.980,320.714 104.245,320.272 104.456 C 319.830 104.668,319.375 104.841,319.260 104.841 C 318.561 104.841,317.848 105.865,317.848 106.869 C 317.848 108.435,318.117 108.676,320.042 108.834 C 324.034 109.161,325.320 109.799,326.283 111.928 L 326.748 112.958 326.846 128.802 L 326.944 144.645 327.456 145.428 C 328.882 147.604,331.863 149.458,334.655 149.903 C 336.176 150.145,337.401 149.989,340.432 149.167 C 341.073 148.993,341.805 148.851,342.059 148.851 C 342.312 148.851,342.932 148.688,343.436 148.488 C 343.940 148.289,344.880 147.988,345.526 147.819 C 346.171 147.651,347.095 147.408,347.579 147.280 C 348.064 147.153,348.812 146.883,349.242 146.681 C 349.672 146.479,350.377 146.223,350.807 146.112 C 353.842 145.327,354.919 143.838,353.579 142.280 L 353.126 141.753 349.717 142.110 C 342.457 142.871,338.943 142.620,338.341 141.300 C 338.224 141.042,338.057 140.831,337.971 140.831 C 337.081 140.831,336.545 118.521,337.329 114.090 C 337.869 111.033,338.563 110.779,345.781 110.987 C 352.337 111.176,353.218 110.646,353.567 106.298 C 353.784 103.585,353.056 102.945,350.318 103.447 C 349.619 103.575,347.858 103.802,346.406 103.953 C 344.954 104.103,343.253 104.289,342.626 104.366 C 338.292 104.902,336.832 102.956,337.431 97.443 C 337.668 95.256,337.580 94.761,336.806 93.933 C 336.138 93.218,336.188 93.230,335.234 93.571 M142.200 102.242 C 141.932 102.294,141.617 102.413,141.501 102.508 C 141.386 102.603,140.654 102.815,139.875 102.978 C 139.096 103.142,138.286 103.368,138.076 103.481 C 137.866 103.593,136.969 103.852,136.084 104.054 C 133.725 104.595,132.818 104.847,131.834 105.236 C 131.350 105.427,130.343 105.694,129.596 105.828 C 127.616 106.184,126.996 106.609,126.829 107.724 C 126.648 108.926,126.871 109.216,128.092 109.368 C 128.647 109.437,129.400 109.636,129.767 109.810 C 130.133 109.983,130.710 110.181,131.049 110.249 C 131.414 110.322,131.794 110.580,131.981 110.883 C 132.155 111.164,132.445 111.570,132.625 111.785 C 133.687 113.053,134.179 137.284,133.217 140.985 C 132.814 142.536,131.809 144.008,130.878 144.409 C 130.597 144.531,130.170 144.777,129.929 144.957 C 129.688 145.138,129.083 145.346,128.584 145.421 C 126.967 145.663,126.236 147.001,127.122 148.096 L 127.496 148.557 138.135 148.613 L 148.774 148.668 149.448 148.215 C 150.834 147.284,150.467 145.630,148.813 145.358 C 147.685 145.172,146.790 144.643,145.675 143.501 C 144.010 141.797,143.912 140.783,143.949 125.710 C 143.986 111.150,143.785 112.014,147.384 110.961 C 154.720 108.816,162.010 110.566,163.050 114.723 C 163.130 115.043,163.359 115.676,163.560 116.129 C 163.904 116.908,163.920 117.614,163.869 129.039 L 163.814 141.125 163.325 142.203 C 162.571 143.867,160.894 145.330,159.741 145.330 C 158.625 145.330,158.091 146.243,158.449 147.539 C 158.756 148.651,158.803 148.656,169.956 148.649 L 180.049 148.643 180.587 148.169 C 181.634 147.248,181.268 145.526,180.025 145.526 C 178.656 145.526,175.820 143.663,175.260 142.396 C 175.142 142.127,174.917 141.687,174.762 141.418 C 174.525 141.008,174.476 138.979,174.456 128.802 C 174.427 113.820,174.304 112.083,173.074 109.340 C 171.727 106.338,168.632 103.411,166.364 102.994 C 165.937 102.916,165.340 102.723,165.037 102.566 C 163.540 101.792,158.031 102.286,154.817 103.481 C 154.279 103.681,153.575 103.903,153.252 103.973 C 152.929 104.044,151.961 104.438,151.100 104.850 C 150.240 105.262,149.271 105.662,148.949 105.739 C 148.626 105.816,148.055 106.042,147.680 106.240 C 145.665 107.308,144.352 106.489,144.352 104.165 C 144.352 102.623,143.622 101.971,142.200 102.242 M254.768 102.329 C 253.584 102.400,252.383 102.549,252.097 102.659 C 251.812 102.770,251.030 102.960,250.360 103.082 C 249.691 103.203,248.825 103.473,248.437 103.681 C 248.049 103.889,247.606 104.059,247.451 104.059 C 247.297 104.059,247.031 104.178,246.861 104.324 C 246.692 104.469,246.068 104.838,245.477 105.143 C 244.067 105.869,242.347 106.976,242.347 107.157 C 242.347 107.236,241.923 107.617,241.406 108.003 C 240.259 108.860,237.750 111.723,237.026 113.002 C 236.048 114.728,235.327 116.277,235.115 117.107 C 234.999 117.559,234.828 117.976,234.736 118.034 C 234.643 118.091,234.508 118.469,234.435 118.873 C 234.362 119.278,234.123 120.181,233.903 120.880 C 233.348 122.652,233.272 130.147,233.792 131.834 C 233.975 132.425,234.254 133.394,234.412 133.985 C 234.798 135.428,235.385 137.031,235.642 137.347 C 235.757 137.488,235.991 137.912,236.162 138.289 C 236.624 139.310,237.092 140.067,237.797 140.933 C 238.145 141.361,238.761 142.118,239.166 142.616 C 241.150 145.053,246.664 148.607,249.026 148.971 C 249.495 149.043,250.288 149.261,250.790 149.456 C 251.527 149.742,252.395 149.821,255.289 149.868 C 260.765 149.957,262.051 149.865,263.018 149.316 C 263.467 149.060,264.086 148.851,264.392 148.851 C 266.368 148.851,275.012 142.904,275.012 141.544 C 275.012 141.451,275.348 140.966,275.759 140.467 C 276.799 139.203,279.246 134.132,279.393 132.939 C 279.457 132.417,279.660 131.581,279.844 131.080 C 280.247 129.990,280.317 122.144,279.937 120.782 C 278.751 116.531,278.402 115.491,277.936 114.817 C 277.750 114.548,277.312 113.764,276.962 113.075 C 276.612 112.385,276.184 111.647,276.011 111.434 C 274.333 109.362,271.732 106.797,271.308 106.797 C 271.183 106.797,270.888 106.589,270.651 106.335 C 270.414 106.080,269.700 105.595,269.064 105.257 C 268.428 104.918,267.812 104.563,267.695 104.467 C 267.578 104.371,267.086 104.192,266.601 104.068 C 266.117 103.945,265.309 103.672,264.805 103.462 C 264.301 103.252,263.710 103.081,263.491 103.081 C 263.273 103.081,262.699 102.946,262.215 102.782 C 261.054 102.388,257.450 102.169,254.768 102.329 M118.044 102.606 C 117.506 102.760,116.538 102.977,115.892 103.087 C 115.247 103.197,114.329 103.417,113.853 103.575 C 113.376 103.734,112.785 103.863,112.539 103.863 C 112.293 103.863,111.671 104.008,111.156 104.186 C 110.349 104.464,107.877 105.042,105.134 105.593 C 104.395 105.741,103.487 106.014,102.233 106.464 C 100.657 107.029,101.073 109.337,102.751 109.341 C 102.986 109.341,103.663 109.540,104.254 109.782 C 105.240 110.185,105.734 110.477,106.810 111.296 C 107.048 111.477,107.400 112.299,107.730 113.447 L 108.264 115.306 108.264 127.824 L 108.264 140.342 107.534 141.832 C 107.086 142.746,106.557 143.507,106.165 143.799 C 104.977 144.685,103.721 145.317,102.880 145.451 C 101.107 145.735,100.731 147.552,102.280 148.352 C 103.125 148.789,123.457 148.810,124.498 148.375 C 125.917 147.782,125.636 145.540,124.140 145.520 C 122.436 145.498,120.085 143.708,119.268 141.809 L 118.637 140.342 118.570 129.976 C 118.497 118.807,118.829 110.099,119.408 107.971 C 119.809 106.500,119.997 103.514,119.731 102.836 C 119.493 102.228,119.402 102.216,118.044 102.606 M258.346 108.808 C 258.852 109.072,259.485 109.355,259.752 109.439 C 261.097 109.859,264.930 113.549,265.809 115.269 C 266.149 115.935,266.727 116.963,267.094 117.555 C 267.460 118.147,267.763 118.832,267.767 119.077 C 267.772 119.322,267.995 120.046,268.264 120.685 C 268.533 121.324,268.753 122.066,268.753 122.334 C 268.753 122.602,268.940 123.287,269.169 123.856 C 269.754 125.314,269.833 133.397,269.285 135.815 C 268.848 137.743,268.729 138.000,267.031 140.678 C 266.576 141.395,265.030 142.787,264.688 142.787 C 264.586 142.787,264.293 142.948,264.036 143.145 C 261.729 144.916,255.918 144.479,252.837 142.303 C 250.944 140.966,247.433 137.050,247.433 136.276 C 247.433 136.179,247.257 135.877,247.042 135.603 C 246.826 135.330,246.650 134.962,246.650 134.785 C 246.650 134.608,246.496 134.246,246.308 133.980 C 245.957 133.484,245.747 132.874,245.166 130.660 C 244.983 129.961,244.650 128.773,244.427 128.020 C 243.706 125.590,243.827 118.280,244.630 115.784 C 245.789 112.181,247.217 110.207,249.310 109.312 C 249.622 109.178,250.035 108.937,250.227 108.776 C 251.165 107.991,256.817 108.014,258.346 108.808 " stroke="none" fill="#f6f8f9" fill-rule="evenodd"></path><path id="path1" d="M0.000 97.800 L 0.000 195.599 200.000 195.599 L 400.000 195.599 400.000 97.800 L 400.000 0.000 200.000 0.000 L 0.000 0.000 0.000 97.800 M398.142 97.800 L 398.142 193.741 200.216 193.790 C 54.043 193.826,2.221 193.781,2.025 193.619 C 1.656 193.313,1.626 2.364,1.995 1.995 C 2.178 1.813,46.381 1.771,200.186 1.809 L 398.142 1.858 398.142 97.800 M3.740 3.786 C 3.578 3.981,3.533 28.710,3.569 98.015 L 3.619 191.980 199.784 192.029 C 344.656 192.066,396.019 192.021,396.215 191.859 C 396.584 191.552,396.613 4.124,396.244 3.756 C 395.875 3.386,4.047 3.416,3.740 3.786 M392.910 97.690 C 392.949 170.002,392.910 188.272,392.714 188.396 C 392.180 188.735,7.291 188.587,7.160 188.248 C 6.912 187.601,7.027 7.525,7.276 7.276 C 7.459 7.094,50.489 7.052,200.186 7.090 L 392.861 7.139 392.910 97.690 M9.021 9.067 C 8.859 9.262,8.814 32.615,8.851 98.015 L 8.900 186.699 199.784 186.748 C 340.751 186.784,390.738 186.740,390.933 186.578 C 391.302 186.271,391.332 9.406,390.963 9.037 C 390.594 8.667,9.328 8.697,9.021 9.067 M202.650 50.574 C 202.789 50.741,203.174 51.010,203.505 51.171 C 204.171 51.494,204.927 51.927,205.966 52.577 C 206.840 53.124,207.304 53.119,208.074 52.551 C 209.308 51.640,210.220 51.338,210.627 51.706 C 210.824 51.884,211.087 52.029,211.213 52.029 C 211.339 52.029,211.806 52.359,212.252 52.763 C 212.698 53.166,213.346 53.672,213.694 53.888 C 214.234 54.222,215.422 55.026,217.506 56.467 C 217.775 56.653,218.363 57.117,218.814 57.498 C 220.625 59.031,220.802 59.126,221.644 59.013 C 222.079 58.955,222.630 58.724,222.868 58.500 C 223.106 58.276,223.365 58.093,223.444 58.093 C 223.522 58.093,223.824 57.929,224.115 57.730 C 224.407 57.530,224.901 57.200,225.213 56.996 C 225.524 56.793,226.009 56.475,226.288 56.290 C 226.568 56.105,227.061 55.805,227.384 55.624 C 227.707 55.442,228.429 54.956,228.989 54.542 C 229.549 54.128,230.078 53.788,230.163 53.786 C 230.248 53.784,230.705 53.520,231.179 53.199 C 232.639 52.210,232.864 52.319,234.479 54.796 C 234.997 55.590,237.351 59.033,238.245 60.304 C 238.684 60.928,239.214 61.610,239.424 61.820 C 239.633 62.029,239.804 62.285,239.804 62.387 C 239.804 62.813,241.600 65.134,241.928 65.134 C 242.035 65.134,242.327 64.865,242.577 64.536 C 242.827 64.207,243.271 63.669,243.564 63.340 C 243.856 63.011,244.150 62.571,244.216 62.362 C 244.385 61.830,245.487 61.943,245.773 62.522 C 245.888 62.753,246.106 63.092,246.259 63.276 C 246.412 63.461,246.629 63.766,246.741 63.956 C 247.107 64.577,247.701 65.411,248.502 66.431 C 248.936 66.983,249.443 67.687,249.628 67.996 C 249.813 68.305,250.321 69.042,250.758 69.633 C 251.194 70.225,251.874 71.193,252.269 71.785 C 252.664 72.377,253.236 73.153,253.541 73.511 C 254.065 74.123,254.897 75.308,255.372 76.115 C 255.489 76.314,255.737 76.644,255.923 76.850 C 256.132 77.081,256.184 77.270,256.061 77.346 C 255.812 77.500,254.866 77.275,254.866 77.062 C 254.866 76.922,253.409 75.655,251.874 74.460 C 251.574 74.226,250.929 73.703,250.441 73.298 C 249.953 72.893,249.297 72.429,248.982 72.266 C 248.668 72.103,248.411 71.891,248.411 71.793 C 248.411 71.695,248.229 71.558,248.007 71.487 C 247.784 71.417,247.165 70.971,246.631 70.496 C 246.097 70.022,245.530 69.633,245.372 69.633 C 245.215 69.633,245.086 69.549,245.086 69.445 C 245.086 69.342,244.381 68.712,243.521 68.045 C 242.660 67.377,241.956 66.764,241.956 66.681 C 241.956 66.598,241.772 66.472,241.548 66.401 C 241.324 66.329,240.685 65.841,240.130 65.315 C 239.574 64.790,239.046 64.358,238.955 64.356 C 238.865 64.354,237.983 63.582,236.995 62.641 C 236.008 61.699,234.667 60.445,234.017 59.853 C 233.367 59.262,232.645 58.502,232.411 58.166 C 231.647 57.062,230.034 57.710,230.020 59.127 C 230.018 59.365,229.852 59.921,229.652 60.362 C 229.452 60.802,229.224 61.815,229.145 62.611 C 229.067 63.407,228.874 64.441,228.717 64.907 C 228.561 65.374,228.345 66.295,228.239 66.954 C 228.017 68.335,227.814 68.655,227.159 68.655 C 226.901 68.655,226.186 68.834,225.570 69.052 C 224.954 69.270,223.941 69.503,223.318 69.569 C 221.831 69.728,221.522 70.150,221.335 72.273 C 221.141 74.479,220.956 74.789,219.745 74.937 C 219.205 75.003,218.499 75.194,218.176 75.360 C 217.854 75.527,217.241 75.727,216.815 75.804 C 216.388 75.882,215.713 76.109,215.313 76.310 C 214.914 76.511,214.473 76.675,214.333 76.675 C 214.192 76.675,213.749 76.851,213.347 77.066 C 212.946 77.281,212.463 77.458,212.275 77.458 C 212.086 77.458,211.643 77.634,211.291 77.849 C 210.661 78.233,210.052 78.349,209.830 78.126 C 209.767 78.064,209.995 77.618,210.335 77.135 C 210.675 76.653,211.130 75.972,211.345 75.622 C 211.560 75.273,212.066 74.541,212.469 73.995 C 212.873 73.450,213.203 72.944,213.203 72.870 C 213.203 72.797,213.599 72.250,214.083 71.656 C 214.567 71.062,214.963 70.503,214.963 70.415 C 214.963 70.327,215.318 69.807,215.751 69.259 C 216.184 68.711,216.624 68.065,216.730 67.823 C 216.835 67.582,217.228 66.988,217.604 66.504 C 217.980 66.020,218.376 65.417,218.486 65.165 C 218.595 64.912,219.001 64.319,219.388 63.846 C 220.180 62.880,220.190 62.131,219.413 61.901 C 219.171 61.829,218.665 61.572,218.289 61.330 C 216.199 59.985,214.810 59.128,214.377 58.914 C 214.108 58.782,213.491 58.412,213.007 58.093 C 212.523 57.774,211.995 57.452,211.834 57.378 C 211.672 57.304,211.330 57.083,211.074 56.886 C 210.817 56.689,210.457 56.528,210.273 56.528 C 210.089 56.528,209.779 56.352,209.584 56.137 C 209.390 55.922,209.139 55.746,209.028 55.746 C 208.916 55.746,207.903 55.294,206.776 54.743 C 203.103 52.944,201.874 53.157,200.508 55.830 C 200.142 56.546,199.350 57.647,198.748 58.276 C 197.657 59.415,197.074 60.453,194.725 65.428 C 194.217 66.504,193.550 67.868,193.244 68.460 L 192.687 69.535 190.334 69.590 L 187.981 69.645 187.508 70.275 C 187.248 70.621,186.973 71.200,186.896 71.561 C 186.820 71.922,186.599 72.582,186.405 73.028 C 186.211 73.474,185.996 74.411,185.926 75.110 C 185.615 78.216,185.956 78.087,177.168 78.438 C 174.185 78.558,171.464 78.736,171.120 78.835 C 169.769 79.222,169.610 78.289,170.815 77.049 C 171.277 76.574,172.311 75.412,173.113 74.465 C 176.981 69.904,176.642 70.144,178.931 70.345 C 180.760 70.506,180.743 70.520,183.117 66.938 C 183.298 66.664,183.672 66.231,183.948 65.975 C 184.224 65.719,184.450 65.434,184.450 65.341 C 184.450 65.248,184.736 64.821,185.086 64.393 C 185.435 63.965,186.161 63.029,186.699 62.315 C 188.382 60.079,190.282 57.619,190.608 57.254 C 190.779 57.061,191.025 56.665,191.154 56.374 C 191.847 54.804,193.384 54.314,194.961 55.159 C 195.363 55.374,195.827 55.550,195.993 55.550 C 196.159 55.550,196.468 55.670,196.680 55.817 C 197.770 56.572,197.948 56.427,200.000 53.112 C 201.580 50.560,202.170 49.995,202.650 50.574 M317.128 75.139 C 319.046 76.146,320.604 78.404,320.324 79.769 C 320.265 80.057,320.096 80.910,319.950 81.663 C 319.168 85.686,317.627 87.262,315.530 86.182 C 309.561 83.109,304.338 84.038,301.896 88.606 L 301.320 89.682 301.261 95.630 C 301.193 102.357,301.198 102.383,302.564 103.256 L 303.472 103.837 309.578 103.899 C 316.968 103.974,316.385 103.727,316.374 106.772 C 316.368 108.813,316.347 108.914,315.732 109.872 C 314.708 111.467,314.411 111.505,308.525 110.784 C 305.824 110.453,303.473 110.725,302.394 111.493 C 301.189 112.351,301.201 112.185,301.264 126.944 L 301.320 140.342 301.955 141.432 C 302.842 142.955,304.968 144.548,306.115 144.548 C 306.301 144.548,307.004 144.724,307.677 144.939 C 308.351 145.154,309.270 145.330,309.719 145.330 C 311.286 145.330,311.964 146.998,310.850 148.112 L 310.405 148.557 297.941 148.606 C 284.358 148.658,284.830 148.695,284.146 147.524 C 283.541 146.489,284.286 145.330,285.557 145.330 C 286.987 145.330,289.879 143.139,290.165 141.839 C 290.239 141.503,290.380 141.177,290.480 141.115 C 290.587 141.049,290.660 135.428,290.660 127.208 L 290.660 113.413 290.101 112.205 C 289.221 110.303,287.014 108.775,284.602 108.398 C 283.588 108.239,283.311 107.498,283.499 105.449 C 283.634 103.976,283.647 103.970,286.775 103.922 C 290.359 103.867,290.687 103.595,290.681 100.680 C 290.673 97.195,291.348 93.099,292.237 91.234 C 292.446 90.797,292.616 90.345,292.616 90.231 C 292.616 90.117,292.740 89.921,292.890 89.796 C 293.041 89.671,293.220 89.349,293.287 89.081 C 293.613 87.780,298.306 82.158,300.132 80.880 C 300.439 80.665,300.933 80.313,301.230 80.098 C 302.566 79.129,303.599 78.435,303.707 78.435 C 303.772 78.435,304.493 78.051,305.311 77.582 C 306.128 77.113,307.149 76.667,307.579 76.590 C 308.010 76.513,308.541 76.335,308.760 76.194 C 309.117 75.965,310.897 75.516,313.056 75.110 C 314.299 74.877,316.661 74.894,317.128 75.139 M114.133 78.954 C 115.472 79.668,117.711 81.508,118.060 82.182 C 118.218 82.488,118.418 82.738,118.503 82.738 C 119.550 82.738,120.266 86.506,119.431 87.617 C 119.152 87.988,118.922 88.384,118.918 88.498 C 118.915 88.611,118.453 89.191,117.891 89.787 C 114.173 93.731,111.763 93.911,108.192 90.514 C 104.739 87.229,104.723 84.526,108.136 81.222 C 108.719 80.658,109.260 80.196,109.338 80.196 C 109.415 80.196,109.716 79.976,110.006 79.707 C 110.296 79.438,110.650 79.218,110.793 79.218 C 110.936 79.218,111.158 79.091,111.286 78.936 C 111.415 78.780,111.800 78.618,112.142 78.576 C 112.483 78.533,112.852 78.484,112.960 78.467 C 113.068 78.449,113.596 78.669,114.133 78.954 M214.609 80.174 C 215.544 80.279,216.468 80.448,216.663 80.551 C 216.858 80.653,217.413 80.799,217.897 80.874 C 218.381 80.950,219.130 81.172,219.560 81.369 C 219.990 81.565,220.650 81.789,221.027 81.866 C 222.679 82.205,225.522 84.461,225.530 85.441 C 225.535 85.948,224.195 90.407,223.658 91.673 C 223.495 92.056,223.048 92.497,222.493 92.823 L 221.592 93.350 220.787 92.987 C 220.344 92.788,219.667 92.325,219.282 91.960 C 218.897 91.595,218.362 91.156,218.093 90.984 C 217.824 90.813,217.120 90.320,216.528 89.889 C 215.081 88.835,212.115 87.327,211.149 87.154 C 210.719 87.077,209.990 86.888,209.529 86.735 C 208.012 86.228,203.204 86.351,201.393 86.942 C 194.928 89.053,193.383 96.427,198.427 101.105 C 198.961 101.600,199.621 102.237,199.894 102.521 C 200.168 102.804,200.875 103.317,201.467 103.659 C 202.059 104.002,202.895 104.543,203.325 104.861 C 203.756 105.180,204.313 105.526,204.563 105.631 C 204.814 105.735,205.886 106.393,206.945 107.092 C 208.005 107.790,208.945 108.362,209.033 108.362 C 209.122 108.362,209.634 108.675,210.172 109.058 C 210.709 109.441,211.765 110.108,212.518 110.539 C 213.951 111.358,215.700 112.484,218.102 114.132 C 218.886 114.670,219.850 115.330,220.244 115.599 C 220.638 115.868,221.392 116.506,221.919 117.017 C 222.447 117.528,222.942 117.946,223.020 117.946 C 223.567 117.946,226.669 121.736,227.422 123.325 C 227.576 123.648,227.826 124.132,227.980 124.401 C 228.133 124.670,228.263 125.242,228.268 125.672 C 228.274 126.103,228.404 126.675,228.557 126.944 C 228.924 127.586,228.922 130.013,228.554 131.540 C 228.398 132.186,228.269 133.056,228.267 133.473 C 228.265 133.891,228.098 134.507,227.894 134.842 C 227.690 135.178,227.460 135.760,227.381 136.137 C 226.713 139.346,220.025 146.160,216.528 147.195 C 216.152 147.307,215.150 147.725,214.303 148.124 C 213.456 148.524,212.576 148.851,212.347 148.852 C 212.119 148.853,211.697 148.975,211.411 149.125 C 209.120 150.320,199.391 150.223,195.012 148.962 C 194.098 148.699,192.895 148.353,192.338 148.193 C 189.022 147.242,186.284 145.387,185.634 143.652 L 185.222 142.550 185.990 140.273 C 186.412 139.020,186.818 137.707,186.892 137.355 C 187.103 136.347,187.884 135.550,188.660 135.550 C 189.852 135.550,190.169 135.739,193.811 138.612 C 194.650 139.273,195.968 140.121,196.741 140.496 C 197.513 140.871,198.254 141.266,198.388 141.373 C 198.777 141.688,201.103 142.554,201.956 142.703 C 202.386 142.778,203.002 142.979,203.325 143.149 C 204.990 144.027,212.407 143.472,214.540 142.310 C 214.827 142.154,215.393 141.878,215.800 141.698 C 218.685 140.413,220.830 135.501,219.785 132.567 C 219.622 132.110,219.442 131.516,219.385 131.247 C 219.249 130.608,218.674 129.869,217.105 128.313 C 215.605 126.827,214.664 126.117,212.958 125.185 C 212.555 124.965,212.225 124.704,212.225 124.606 C 212.225 124.508,212.058 124.374,211.853 124.309 C 211.649 124.244,210.756 123.706,209.870 123.112 C 208.983 122.519,207.896 121.849,207.454 121.624 C 207.012 121.398,206.281 120.941,205.829 120.607 C 205.377 120.273,204.637 119.780,204.184 119.511 C 203.732 119.242,202.738 118.604,201.976 118.093 C 201.215 117.582,200.491 117.164,200.369 117.164 C 200.246 117.164,200.031 117.025,199.890 116.856 C 199.749 116.686,199.009 116.204,198.245 115.785 C 197.481 115.365,196.600 114.756,196.288 114.430 C 195.977 114.105,195.617 113.839,195.489 113.839 C 195.361 113.839,195.136 113.695,194.990 113.519 C 194.844 113.343,194.405 112.997,194.015 112.750 C 191.908 111.421,187.579 106.368,187.579 105.239 C 187.579 105.116,187.401 104.624,187.184 104.147 C 186.684 103.049,186.333 99.670,186.600 98.516 C 186.703 98.068,186.790 97.244,186.792 96.685 C 186.796 95.984,186.949 95.384,187.286 94.749 C 187.555 94.243,187.775 93.677,187.775 93.492 C 187.775 93.076,188.619 91.228,189.113 90.562 C 189.312 90.293,189.717 89.705,190.012 89.255 C 190.924 87.864,193.789 85.194,195.428 84.205 C 195.785 83.990,196.388 83.625,196.767 83.394 C 197.147 83.162,198.029 82.694,198.729 82.352 C 199.428 82.011,200.227 81.610,200.504 81.462 C 200.780 81.313,201.606 81.096,202.337 80.980 C 203.069 80.863,203.908 80.643,204.202 80.491 C 204.514 80.329,205.568 80.177,206.736 80.125 C 207.835 80.075,208.784 79.985,208.845 79.924 C 208.989 79.780,212.437 79.929,214.609 80.174 M53.496 81.465 C 56.713 81.807,75.270 81.860,82.934 81.550 C 85.462 81.448,89.731 81.312,92.421 81.249 L 97.311 81.134 97.975 81.829 L 98.640 82.523 98.435 84.049 C 98.215 85.678,97.862 87.170,97.099 89.682 C 96.838 90.543,96.624 91.467,96.625 91.736 C 96.627 93.044,95.380 95.051,94.561 95.058 C 93.779 95.064,92.527 93.924,92.521 93.200 C 92.517 92.672,91.823 91.383,91.153 90.660 C 90.854 90.337,90.508 89.875,90.383 89.633 C 90.259 89.391,90.050 89.193,89.920 89.193 C 89.789 89.193,89.154 88.936,88.509 88.622 C 86.460 87.626,85.331 87.237,84.463 87.230 C 83.998 87.227,82.914 87.096,82.054 86.941 C 79.718 86.519,74.887 86.562,72.492 87.027 C 70.301 87.452,69.205 88.254,68.243 90.137 L 67.775 91.051 67.712 100.440 C 67.640 111.043,67.653 111.228,68.518 112.213 L 69.137 112.918 74.715 112.799 C 79.278 112.702,80.628 112.608,82.132 112.282 C 83.144 112.062,84.226 111.883,84.536 111.883 C 84.847 111.883,85.428 111.717,85.827 111.515 C 86.226 111.313,86.861 111.083,87.237 111.005 C 87.614 110.926,88.054 110.754,88.215 110.622 C 88.377 110.491,89.037 110.092,89.682 109.737 C 90.328 109.381,91.066 108.926,91.322 108.726 C 93.098 107.340,94.260 109.208,92.945 111.336 C 92.711 111.716,92.518 112.131,92.518 112.258 C 92.518 112.386,92.025 113.520,91.422 114.778 C 90.819 116.036,90.022 117.770,89.651 118.631 C 87.639 123.304,86.994 123.892,85.424 122.489 C 81.188 118.704,79.190 118.010,72.226 117.901 L 69.243 117.854 68.509 118.588 L 67.775 119.323 67.783 128.952 L 67.791 138.582 68.335 139.707 C 69.249 141.595,71.374 143.302,73.247 143.654 C 73.672 143.733,74.272 143.929,74.579 144.088 C 74.886 144.246,75.902 144.491,76.835 144.631 C 79.776 145.073,80.499 145.660,80.219 147.379 C 79.999 148.728,79.582 148.863,76.284 148.651 C 66.050 147.991,58.809 147.971,50.992 148.580 C 46.535 148.927,46.344 148.885,45.962 147.466 C 45.513 145.799,46.324 145.132,49.620 144.455 C 49.962 144.384,50.345 144.203,50.471 144.051 C 50.597 143.900,51.000 143.719,51.367 143.650 C 51.733 143.582,52.083 143.446,52.143 143.348 C 52.203 143.251,52.683 142.953,53.210 142.686 C 53.736 142.419,54.269 142.003,54.394 141.761 C 54.519 141.518,54.776 141.144,54.966 140.929 C 55.155 140.714,55.518 139.702,55.773 138.680 L 56.235 136.822 56.235 114.230 C 56.235 93.853,56.204 91.581,55.920 91.051 C 55.747 90.729,55.551 90.176,55.484 89.824 C 55.216 88.415,52.725 85.875,51.210 85.467 C 50.766 85.347,50.218 85.133,49.993 84.991 C 49.768 84.849,49.305 84.675,48.963 84.603 C 47.709 84.342,47.306 82.710,48.252 81.722 C 48.886 81.060,49.432 81.033,53.496 81.465 M336.806 93.933 C 337.580 94.761,337.668 95.256,337.431 97.443 C 336.832 102.956,338.292 104.902,342.626 104.366 C 343.253 104.289,344.954 104.103,346.406 103.953 C 347.858 103.802,349.619 103.575,350.318 103.447 C 353.056 102.945,353.784 103.585,353.567 106.298 C 353.218 110.646,352.337 111.176,345.781 110.987 C 338.563 110.779,337.869 111.033,337.329 114.090 C 336.545 118.521,337.081 140.831,337.971 140.831 C 338.057 140.831,338.224 141.042,338.341 141.300 C 338.943 142.620,342.457 142.871,349.717 142.110 L 353.126 141.753 353.579 142.280 C 354.919 143.838,353.842 145.327,350.807 146.112 C 350.377 146.223,349.672 146.479,349.242 146.681 C 348.812 146.883,348.064 147.153,347.579 147.280 C 347.095 147.408,346.171 147.651,345.526 147.819 C 344.880 147.988,343.940 148.289,343.436 148.488 C 342.932 148.688,342.312 148.851,342.059 148.851 C 341.805 148.851,341.073 148.993,340.432 149.167 C 334.502 150.776,330.135 149.517,327.456 145.428 L 326.944 144.645 326.846 128.802 L 326.748 112.958 326.283 111.928 C 325.320 109.799,324.034 109.161,320.042 108.834 C 318.117 108.676,317.848 108.435,317.848 106.869 C 317.848 105.865,318.561 104.841,319.260 104.841 C 319.375 104.841,319.830 104.668,320.272 104.456 C 320.714 104.245,321.440 103.980,321.884 103.868 C 322.329 103.756,322.802 103.533,322.935 103.373 C 323.068 103.212,323.278 103.081,323.402 103.081 C 323.525 103.081,324.153 102.686,324.796 102.203 C 325.439 101.720,326.070 101.323,326.197 101.322 C 326.616 101.319,329.835 98.556,332.202 96.168 C 334.263 94.090,335.251 93.361,336.078 93.309 C 336.153 93.305,336.481 93.585,336.806 93.933 M144.010 102.719 C 144.242 102.994,144.352 103.458,144.352 104.165 C 144.352 106.489,145.665 107.308,147.680 106.240 C 148.055 106.042,148.626 105.816,148.949 105.739 C 149.271 105.662,150.240 105.262,151.100 104.850 C 151.961 104.438,152.929 104.044,153.252 103.973 C 153.575 103.903,154.279 103.681,154.817 103.481 C 158.031 102.286,163.540 101.792,165.037 102.566 C 165.340 102.723,165.937 102.916,166.364 102.994 C 168.632 103.411,171.727 106.338,173.074 109.340 C 174.304 112.083,174.427 113.820,174.456 128.802 C 174.476 138.979,174.525 141.008,174.762 141.418 C 174.917 141.687,175.142 142.127,175.260 142.396 C 175.820 143.663,178.656 145.526,180.025 145.526 C 181.268 145.526,181.634 147.248,180.587 148.169 L 180.049 148.643 169.956 148.649 C 158.803 148.656,158.756 148.651,158.449 147.539 C 158.091 146.243,158.625 145.330,159.741 145.330 C 160.894 145.330,162.571 143.867,163.325 142.203 L 163.814 141.125 163.869 129.039 C 163.920 117.614,163.904 116.908,163.560 116.129 C 163.359 115.676,163.130 115.043,163.050 114.723 C 162.010 110.566,154.720 108.816,147.384 110.961 C 143.785 112.014,143.986 111.150,143.949 125.710 C 143.912 140.783,144.010 141.797,145.675 143.501 C 146.790 144.643,147.685 145.172,148.813 145.358 C 150.467 145.630,150.834 147.284,149.448 148.215 L 148.774 148.668 138.135 148.613 L 127.496 148.557 127.122 148.096 C 126.236 147.001,126.967 145.663,128.584 145.421 C 129.083 145.346,129.688 145.138,129.929 144.957 C 130.170 144.777,130.597 144.531,130.878 144.409 C 131.809 144.008,132.814 142.536,133.217 140.985 C 134.179 137.284,133.687 113.053,132.625 111.785 C 132.445 111.570,132.155 111.164,131.981 110.883 C 131.794 110.580,131.414 110.322,131.049 110.249 C 130.710 110.181,130.133 109.983,129.767 109.810 C 129.400 109.636,128.647 109.437,128.092 109.368 C 126.871 109.216,126.648 108.926,126.829 107.724 C 126.996 106.609,127.616 106.184,129.596 105.828 C 130.343 105.694,131.350 105.427,131.834 105.236 C 132.818 104.847,133.725 104.595,136.084 104.054 C 136.969 103.852,137.866 103.593,138.076 103.481 C 138.286 103.368,139.096 103.142,139.875 102.978 C 140.654 102.815,141.386 102.603,141.501 102.508 C 142.114 102.006,143.505 102.123,144.010 102.719 M262.215 102.782 C 262.699 102.946,263.273 103.081,263.491 103.081 C 263.710 103.081,264.301 103.252,264.805 103.462 C 265.309 103.672,266.117 103.945,266.601 104.068 C 267.086 104.192,267.578 104.371,267.695 104.467 C 267.812 104.563,268.428 104.918,269.064 105.257 C 269.700 105.595,270.414 106.080,270.651 106.335 C 270.888 106.589,271.183 106.797,271.308 106.797 C 271.732 106.797,274.333 109.362,276.011 111.434 C 276.184 111.647,276.612 112.385,276.962 113.075 C 277.312 113.764,277.750 114.548,277.936 114.817 C 278.402 115.491,278.751 116.531,279.937 120.782 C 280.317 122.144,280.247 129.990,279.844 131.080 C 279.660 131.581,279.457 132.417,279.393 132.939 C 279.246 134.132,276.799 139.203,275.759 140.467 C 275.348 140.966,275.012 141.451,275.012 141.544 C 275.012 142.904,266.368 148.851,264.392 148.851 C 264.086 148.851,263.467 149.060,263.018 149.316 C 262.051 149.865,260.765 149.957,255.289 149.868 C 252.395 149.821,251.527 149.742,250.790 149.456 C 250.288 149.261,249.495 149.043,249.026 148.971 C 246.664 148.607,241.150 145.053,239.166 142.616 C 238.761 142.118,238.145 141.361,237.797 140.933 C 237.092 140.067,236.624 139.310,236.162 138.289 C 235.991 137.912,235.757 137.488,235.642 137.347 C 235.385 137.031,234.798 135.428,234.412 133.985 C 234.254 133.394,233.975 132.425,233.792 131.834 C 233.272 130.147,233.348 122.652,233.903 120.880 C 234.123 120.181,234.362 119.278,234.435 118.873 C 234.508 118.469,234.643 118.091,234.736 118.034 C 234.828 117.976,234.999 117.559,235.115 117.107 C 235.327 116.277,236.048 114.728,237.026 113.002 C 237.750 111.723,240.259 108.860,241.406 108.003 C 241.923 107.617,242.347 107.236,242.347 107.157 C 242.347 106.976,244.067 105.869,245.477 105.143 C 246.068 104.838,246.692 104.469,246.861 104.324 C 247.031 104.178,247.297 104.059,247.451 104.059 C 247.606 104.059,248.049 103.889,248.437 103.681 C 248.825 103.473,249.691 103.203,250.360 103.082 C 251.030 102.960,251.812 102.770,252.097 102.659 C 253.525 102.105,260.469 102.189,262.215 102.782 M119.731 102.836 C 119.997 103.514,119.809 106.500,119.408 107.971 C 118.829 110.099,118.497 118.807,118.570 129.976 L 118.637 140.342 119.268 141.809 C 120.085 143.708,122.436 145.498,124.140 145.520 C 125.636 145.540,125.917 147.782,124.498 148.375 C 123.457 148.810,103.125 148.789,102.280 148.352 C 100.731 147.552,101.107 145.735,102.880 145.451 C 103.721 145.317,104.977 144.685,106.165 143.799 C 106.557 143.507,107.086 142.746,107.534 141.832 L 108.264 140.342 108.264 127.824 L 108.264 115.306 107.730 113.447 C 107.400 112.299,107.048 111.477,106.810 111.296 C 105.734 110.477,105.240 110.185,104.254 109.782 C 103.663 109.540,102.986 109.341,102.751 109.341 C 101.073 109.337,100.657 107.029,102.233 106.464 C 103.487 106.014,104.395 105.741,105.134 105.593 C 107.877 105.042,110.349 104.464,111.156 104.186 C 111.671 104.008,112.293 103.863,112.539 103.863 C 112.785 103.863,113.376 103.734,113.853 103.575 C 114.329 103.417,115.247 103.197,115.892 103.087 C 116.538 102.977,117.506 102.760,118.044 102.606 C 119.402 102.216,119.493 102.228,119.731 102.836 M251.401 108.336 C 250.947 108.417,250.419 108.616,250.227 108.776 C 250.035 108.937,249.622 109.178,249.310 109.312 C 247.217 110.207,245.789 112.181,244.630 115.784 C 243.827 118.280,243.706 125.590,244.427 128.020 C 244.650 128.773,244.983 129.961,245.166 130.660 C 245.747 132.874,245.957 133.484,246.308 133.980 C 246.496 134.246,246.650 134.608,246.650 134.785 C 246.650 134.962,246.826 135.330,247.042 135.603 C 247.257 135.877,247.433 136.179,247.433 136.276 C 247.433 137.050,250.944 140.966,252.837 142.303 C 255.918 144.479,261.729 144.916,264.036 143.145 C 264.293 142.948,264.586 142.787,264.688 142.787 C 265.030 142.787,266.576 141.395,267.031 140.678 C 268.729 138.000,268.848 137.743,269.285 135.815 C 269.833 133.397,269.754 125.314,269.169 123.856 C 268.940 123.287,268.753 122.602,268.753 122.334 C 268.753 122.066,268.533 121.324,268.264 120.685 C 267.995 120.046,267.772 119.322,267.767 119.077 C 267.763 118.832,267.460 118.147,267.094 117.555 C 266.727 116.963,266.149 115.935,265.809 115.269 C 264.930 113.549,261.097 109.859,259.752 109.439 C 259.485 109.355,258.852 109.072,258.346 108.808 C 257.347 108.289,253.223 108.008,251.401 108.336 " stroke="none" fill="#3c4668" fill-rule="evenodd"></path></g></svg>